<svg width="131" height="51" viewBox="0 0 131 51" fill="none" xmlns="http://www.w3.org/2000/svg">
<g filter="url(#filter0_b)">
<rect x="0.5" y="5.5" width="130" height="45" rx="22.5" fill="white" stroke="#2C2A4A"/>
<path d="M82.718 29.9508C79.0818 29.7428 75.797 26.4426 75.9381 22.5718C76.0012 20.8319 76.9619 19.3794 78.46 18.6157C80.5466 17.5521 83.4915 17.6523 85.3198 19.2191C86.2605 20.0245 86.7794 21.197 86.8705 22.446C86.9785 23.9151 86.4976 25.2519 85.5781 26.3609C84.6586 27.4698 83.4788 28.3187 82.3916 29.2374C81.5757 29.9279 80.7944 30.6515 80.0766 31.4504C78.4349 33.2792 76.967 35.4036 76.1207 37.7549C75.7416 38.8098 75.5076 39.9666 75.6416 41.0936C75.7729 42.1988 76.2852 43.1808 77.1006 43.9076C79.0273 45.6241 82.0358 45.0274 84.1897 44.1597C85.3472 43.6933 86.4597 43.0641 87.4015 42.2197C88.3266 41.3903 88.8709 40.2468 89.1014 39.0096C89.5311 36.699 88.3847 34.6499 86.909 33.0182C85.2641 31.1996 83.2499 29.7964 81.4619 28.1418C81.1667 27.8681 80.7289 28.318 81.0255 28.5931C83.0008 30.4212 85.2646 31.95 86.9825 34.0623C87.7437 34.9982 88.3488 36.0856 88.5368 37.3064C88.728 38.5443 88.3711 40.0107 87.6587 41.0201C87.0016 41.9511 85.9445 42.6015 84.9689 43.1093C83.7898 43.7225 82.4863 44.1521 81.1727 44.3013C80.0252 44.431 78.786 44.341 77.7999 43.6652C76.94 43.0761 76.3759 42.0832 76.2507 41.031C76.1165 39.9022 76.4001 38.7639 76.7911 37.7186C77.2366 36.5273 77.8834 35.4143 78.5865 34.3693C79.9023 32.4133 81.5086 30.774 83.3016 29.2931C84.3925 28.3919 85.5113 27.5153 86.3667 26.3602C87.2178 25.2105 87.5865 23.8026 87.4817 22.3638C87.3886 21.0988 86.8888 19.9074 86.016 19.0115C85.1199 18.0913 83.8933 17.5845 82.6619 17.39C80.588 17.063 78.1354 17.5743 76.6437 19.1965C75.467 20.4757 75.142 22.2821 75.4196 23.9808C76.015 27.6262 79.2027 30.388 82.7185 30.5889C83.1159 30.6114 83.1134 29.9733 82.7185 29.9508" fill="#291967"/>
<path d="M81.9704 28.6414C80.0285 27.916 78.4168 26.4197 77.4766 24.5212C76.6813 22.9157 76.3907 20.8969 77.1655 19.2229C78.1124 17.1774 80.299 16.4471 82.337 16.2783C83.857 16.1525 86.0184 16.1699 86.8887 17.7251C87.6067 19.0078 87.149 20.7606 86.7082 22.0747C86.0839 23.9381 85.1243 25.6827 84.1066 27.3422C83.2412 28.7539 82.3025 30.1232 81.2868 31.423C80.6378 32.2531 79.9374 33.0284 79.3292 33.8957C78.6719 34.833 78.0855 35.8292 77.622 36.8852C76.8058 38.7454 76.3509 40.948 77.3016 42.8509C78.3923 45.0332 81.0551 46.0446 83.2617 46.3956C84.8469 46.6471 86.5757 46.4409 87.7332 45.182C88.7712 44.0537 89.0737 42.4082 89.0515 40.9007C89.0245 39.051 88.5202 37.2191 87.7788 35.5464C87.0263 33.851 85.9525 32.252 84.559 31.0562C83.9358 30.5208 83.2517 30.0836 82.5036 29.7639C82.1356 29.6069 81.977 30.2245 82.3395 30.3791C83.9194 31.0535 85.1846 32.3841 86.1338 33.8243C87.1575 35.3773 87.8744 37.1558 88.2319 38.9987C88.5265 40.5174 88.593 42.2491 87.9587 43.6913C87.3536 45.0664 86.1257 45.7869 84.6921 45.8533C83.6259 45.9023 82.573 45.6419 81.5643 45.3101C80.3836 44.9223 79.2232 44.3267 78.3861 43.3594C77.0199 41.7821 77.2557 39.5844 77.9354 37.7474C78.7207 35.6263 80.0948 33.7227 81.5716 32.0656C82.0387 31.5411 82.4419 30.933 82.8498 30.3606C83.3743 29.6267 83.8779 28.8764 84.36 28.1124C85.4171 26.4388 86.384 24.6858 87.0947 22.8233C87.6513 21.3645 88.1493 19.6097 87.6907 18.0511C87.2024 16.394 85.6137 15.7674 84.0794 15.6303C82.8752 15.5226 81.6012 15.637 80.4308 15.9448C79.418 16.2111 78.4546 16.6988 77.6834 17.4352C76.3155 18.7421 75.9038 20.7035 76.1966 22.5527C76.5154 24.5666 77.6696 26.4228 79.1753 27.7111C79.9601 28.3824 80.8494 28.8993 81.8065 29.2566C82.1812 29.3964 82.3415 28.7793 81.9704 28.6414Z" fill="#627DC2"/>
<path d="M83.4009 29.339C82.4339 28.0908 81.518 26.7974 80.6853 25.4491C79.7248 23.8933 78.7837 22.2043 78.4048 20.3809C78.2639 19.7045 78.2291 18.993 78.4711 18.344C78.6971 17.738 79.2637 17.3333 79.8624 17.1246C80.9142 16.7585 82.1098 16.818 83.1956 16.9417C84.4524 17.0845 85.4792 17.8654 86.0536 19.0152C86.6029 20.1155 86.6911 21.4321 86.5499 22.6427C86.4629 23.3899 86.3729 24.0893 86.0641 24.7815C85.7911 25.3923 85.3973 25.9284 84.9505 26.4126C83.9299 27.5177 82.6613 28.3862 81.4668 29.2719C80.2944 30.1417 79.109 31.0172 78.139 32.1327C76.4255 34.1031 75.4125 37.0358 76.0835 39.6666C76.3529 40.7228 76.9521 41.6429 77.8068 42.2823C78.7929 43.0193 80.063 43.2356 81.2535 43.1904C84.0143 43.0864 86.9048 41.5741 88.5524 39.2642C89.3178 38.1902 89.5994 36.9159 89.3296 35.609C89.0497 34.2581 88.1222 33.1133 87.1878 32.1785C85.8571 30.8482 84.2921 29.7996 82.779 28.7118C82.4518 28.4768 82.1436 29.0301 82.4678 29.263C83.6277 30.0969 84.8055 30.9054 85.894 31.8398C86.94 32.7369 88.0087 33.7962 88.5357 35.1203C89.0257 36.3538 88.8525 37.6394 88.1561 38.7403C87.3826 39.9615 86.1512 40.8651 84.9146 41.5255C82.8073 42.6505 79.5986 43.2599 77.709 41.3729C75.984 39.6508 76.3349 36.6868 77.2549 34.6461C78.5415 31.7932 81.3325 30.2196 83.6607 28.394C84.7361 27.5509 85.7918 26.6288 86.4557 25.3898C87.0992 24.1893 87.2662 22.7186 87.2194 21.363C87.1762 20.1352 86.8402 18.8724 86.0926 17.9001C85.2515 16.8068 84.0655 16.3786 82.7583 16.2654C81.1355 16.1248 78.7949 16.1866 77.9673 17.9566C77.2791 19.4288 77.9063 21.2401 78.4916 22.6293C79.2357 24.3942 80.2661 26.031 81.3481 27.5906C81.8671 28.3396 82.4088 29.0715 82.9654 29.79C83.2143 30.111 83.6471 29.6568 83.4011 29.339" fill="#291967"/>
<path d="M81.9684 29.4608C80.4936 29.0619 79.1264 28.2777 77.9702 27.2549C76.8973 26.3061 75.9568 25.0911 75.5639 23.6681C75.2286 22.4545 75.4871 21.296 76.179 20.2815C76.7038 19.512 77.4501 18.9315 78.2674 18.5334C81.1308 17.14 86.1222 18.0888 86.6893 21.8716C86.9876 23.8608 85.7845 25.6359 84.537 27.0003C83.0553 28.6218 81.3238 29.9778 79.705 31.4446C78.1828 32.8238 76.6243 34.341 75.7275 36.2509C75.3199 37.12 75.0832 38.0645 75.085 39.0332C75.087 40.1192 75.414 41.172 75.8927 42.1287C77.0148 44.3695 78.95 46.0803 81.3597 46.6044C83.5329 47.0759 85.8849 46.5469 87.6422 45.1352C89.6255 43.5421 90.5895 40.9181 90.3386 38.3523C90.0336 35.2326 87.9995 32.6353 85.6649 30.7983C85.0491 30.3134 84.3958 29.882 83.7208 29.4916C83.3739 29.2911 83.0633 29.8417 83.4102 30.0428C86.0494 31.5698 88.5254 33.8995 89.4425 36.9701C90.2012 39.5085 89.5872 42.4055 87.7061 44.2452C86.1173 45.799 83.7862 46.4166 81.6549 46.0152C79.2312 45.5591 77.3577 43.8022 76.2999 41.5478C75.8656 40.6232 75.6451 39.6043 75.7168 38.5762C75.7818 37.6445 76.1256 36.7562 76.5789 35.958C77.632 34.1031 79.2807 32.6483 80.8429 31.2687C82.4506 29.8481 84.1467 28.4897 85.5237 26.8184C86.7632 25.3143 87.6587 23.4102 87.2272 21.3914C86.8465 19.6065 85.3813 18.3761 83.7936 17.7642C82.0833 17.105 80.0835 17.1104 78.3823 17.7944C76.5246 18.5411 74.8777 20.2771 74.7955 22.4282C74.7428 23.8167 75.3791 25.1613 76.1813 26.2339C77.1059 27.4699 78.3171 28.4692 79.6473 29.2011C80.3297 29.5771 81.0571 29.8738 81.8047 30.076C82.1899 30.18 82.3527 29.5642 81.9686 29.4608" fill="#627DC2"/>
<path d="M16.6563 47.1202C14.4121 47.1202 12.6666 46.2917 11.4198 44.6346C10.1908 42.9775 9.57629 40.6077 9.57629 37.5251C9.57629 34.4247 10.2086 32.046 11.4732 30.3889C12.7378 28.7318 14.51 27.9033 16.7899 27.9033C17.7339 27.9033 18.6066 28.028 19.4081 28.2775C20.2275 28.5091 20.8776 28.8387 21.3585 29.2664C21.8572 29.6762 22.1066 30.1217 22.1066 30.6027C22.1066 30.9413 21.9463 31.2353 21.6257 31.4847C21.305 31.7342 20.8865 31.8322 20.37 31.7787C20.2275 30.8522 19.8445 30.1395 19.2211 29.6406C18.6155 29.1417 17.814 28.8922 16.8166 28.8922C15.2136 28.8922 14.0024 29.6227 13.1831 31.0838C12.3638 32.5271 11.9541 34.6742 11.9541 37.5251C11.9541 40.3582 12.3638 42.5053 13.1831 43.9664C14.0024 45.4097 15.1958 46.1313 16.7632 46.1313C17.7606 46.1313 18.6333 45.8284 19.3814 45.2226C20.1295 44.6167 20.6104 43.7704 20.8241 42.6835L21.1447 42.6567C21.5544 42.6567 21.9017 42.7547 22.1867 42.9507C22.4717 43.1289 22.6142 43.3962 22.6142 43.7526C22.6142 44.3406 22.3292 44.8929 21.7592 45.4097C21.2071 45.9264 20.4679 46.3451 19.5417 46.6658C18.6333 46.9687 17.6715 47.1202 16.6563 47.1202ZM31.8235 32.8478C32.7497 32.8478 33.4889 33.0973 34.041 33.5962C34.611 34.0773 34.896 34.7544 34.896 35.6275C34.896 36.2155 34.7268 36.7055 34.3884 37.0975C34.0499 37.4717 33.6492 37.6587 33.1861 37.6587C32.7942 37.6587 32.5271 37.5697 32.3846 37.3915C32.5805 37.0886 32.7141 36.8124 32.7853 36.5629C32.8566 36.2957 32.8922 36.0017 32.8922 35.6809C32.8922 34.5762 32.3757 34.0238 31.3426 34.0238C30.5411 34.0238 29.8644 34.5406 29.3122 35.574C28.7779 36.5897 28.5107 38.1755 28.5107 40.3315V41.7747C28.5107 43.3784 28.5285 44.4653 28.5641 45.0355C28.5998 45.6057 28.6977 46.1046 28.858 46.5322C28.484 46.8529 28.0654 47.0133 27.6023 47.0133C27.2461 47.0133 26.9522 46.9064 26.7207 46.6926C26.4891 46.4609 26.3733 46.1491 26.3733 45.7571V35.9215C26.3733 35.4226 26.311 35.0662 26.1863 34.8524C26.0795 34.6386 25.8924 34.5317 25.6253 34.5317C25.2869 34.5317 25.0553 34.6742 24.9306 34.9593C24.7169 34.6564 24.61 34.3713 24.61 34.104C24.61 33.7298 24.7525 33.4358 25.0375 33.222C25.3225 32.9904 25.7143 32.8746 26.213 32.8746C26.9077 32.8746 27.4242 33.124 27.7626 33.6229C28.1189 34.104 28.2881 34.8257 28.2703 35.7878V35.9215C28.573 34.9058 29.0272 34.1397 29.6328 33.6229C30.2384 33.1062 30.9686 32.8478 31.8235 32.8478ZM47.6509 43.3249C47.9181 43.414 48.0516 43.6189 48.0516 43.9397C48.0516 44.1178 47.9982 44.3584 47.8913 44.6613C47.5529 45.4453 46.9562 46.0511 46.1013 46.4787C45.2642 46.9064 44.2756 47.1202 43.1357 47.1202C41.1765 47.1202 39.6447 46.5144 38.5404 45.3027C37.4361 44.0733 36.8839 42.3271 36.8839 40.0642C36.8839 37.8191 37.4272 36.0551 38.5137 34.7722C39.618 33.4893 41.1943 32.8478 43.2426 32.8478C44.7209 32.8478 45.9054 33.1864 46.7959 33.8635C47.6865 34.5227 48.1318 35.4671 48.1318 36.6966C48.1318 38.0151 47.5974 39.0218 46.5288 39.7167C45.4601 40.4117 43.9728 40.7591 42.067 40.7591C41.0162 40.7591 40.0544 40.6967 39.1816 40.572C39.2885 42.3717 39.7338 43.6724 40.5174 44.4742C41.319 45.2582 42.3609 45.6502 43.6433 45.6502C44.623 45.6502 45.469 45.4542 46.1814 45.0622C46.8939 44.6524 47.3837 44.0733 47.6509 43.3249ZM43.1624 33.81C41.9513 33.81 40.9805 34.3178 40.2503 35.3335C39.5378 36.3313 39.1727 37.7746 39.1549 39.6633C40.0098 39.7346 40.7045 39.7791 41.2388 39.7969C42.6637 39.7969 43.7858 39.5475 44.6051 39.0486C45.4423 38.5318 45.8608 37.6587 45.8608 36.4293C45.8608 35.4849 45.6026 34.8167 45.0861 34.4247C44.5695 34.0149 43.9283 33.81 43.1624 33.81ZM63.4871 44.8217C63.6831 45.0889 63.781 45.3651 63.781 45.6502C63.781 46.0422 63.594 46.3718 63.22 46.6391C62.8638 46.9064 62.4274 47.04 61.9108 47.04C61.145 47.04 60.5661 46.7727 60.1742 46.2382C59.7824 45.7037 59.5865 44.8662 59.5865 43.7258V42.9507C58.9987 44.2158 58.1972 45.2226 57.1819 45.9709C56.1845 46.7015 55.0891 47.0667 53.8958 47.0667C52.8627 47.0667 52.0434 46.7906 51.4378 46.2382C50.85 45.668 50.5561 44.9107 50.5561 43.9664C50.5561 42.9151 50.9569 42.0242 51.7584 41.2937C52.5599 40.5631 53.6375 40.0107 54.9911 39.6366C56.1845 39.3158 57.4224 39.1555 58.7048 39.1555C59.061 39.1555 59.3193 39.1644 59.4796 39.1822V38.4873C59.4796 36.9015 59.2124 35.7255 58.6781 34.9593C58.1616 34.1931 57.2977 33.81 56.0865 33.81C55.3028 33.81 54.6438 33.9793 54.1095 34.3178C53.5751 34.6564 53.308 35.2087 53.308 35.9749C53.308 36.3847 53.397 36.7678 53.5751 37.1242C53.7711 37.4806 54.065 37.73 54.4568 37.8726C54.1718 38.2289 53.7444 38.4071 53.1744 38.4071C52.5866 38.4071 52.1057 38.1755 51.7317 37.7122C51.3576 37.2311 51.1706 36.6787 51.1706 36.0551C51.1706 35.0217 51.6248 34.2287 52.5332 33.6764C53.4416 33.124 54.6884 32.8478 56.2736 32.8478C58.1081 32.8478 59.4618 33.32 60.3345 34.2644C61.2073 35.2087 61.6437 36.6609 61.6437 38.6209V43.9664C61.6437 44.9107 61.9643 45.3829 62.6055 45.3829C62.748 45.3829 62.9083 45.3384 63.0864 45.2493C63.2645 45.1424 63.3981 44.9998 63.4871 44.8217ZM54.7507 45.57C55.4631 45.57 56.1845 45.3117 56.9148 44.7949C57.6628 44.2604 58.2773 43.5655 58.7582 42.7102C59.257 41.8549 59.5152 40.964 59.533 40.0375L58.9185 40.0107C58.2951 40.0107 57.6628 40.0642 57.0216 40.1711C56.3804 40.2602 55.8372 40.3938 55.3919 40.572C54.6082 40.8571 53.9937 41.2491 53.5484 41.748C53.1032 42.2469 52.8805 42.8349 52.8805 43.512C52.8805 44.1 53.0319 44.59 53.3347 44.982C53.6375 45.374 54.1095 45.57 54.7507 45.57ZM69.814 33.222C70.0989 33.222 70.473 33.2131 70.9361 33.1953C71.417 33.1775 71.7999 33.1597 72.0849 33.1418L72.0582 33.7298C72.0404 33.908 71.978 34.0595 71.8712 34.1842C71.7643 34.2911 71.6307 34.3446 71.4704 34.3446H68.7186V35.3602V43.9664C68.7186 44.4297 68.8254 44.786 69.0392 45.0355C69.2529 45.2849 69.5735 45.4097 70.001 45.4097C70.2681 45.4097 70.5175 45.3651 70.749 45.276C70.9984 45.1691 71.1676 45.0266 71.2567 44.8484C71.4526 45.1157 71.5506 45.4007 71.5506 45.7037C71.5506 46.1135 71.3368 46.4431 70.9093 46.6926C70.4819 46.942 69.9386 47.0667 69.2796 47.0667C68.4425 47.0667 67.7835 46.8084 67.3026 46.2917C66.8217 45.7571 66.5812 45.0266 66.5812 44.1V34.3446H66.2072C65.4769 34.3446 64.9426 34.3713 64.6041 34.4247L64.6309 33.81C64.6487 33.418 64.8446 33.222 65.2186 33.222H66.5812V30.8433C66.5812 30.4691 66.697 30.184 66.9285 29.988C67.1601 29.7742 67.4629 29.6673 67.8369 29.6673C68.2822 29.6673 68.6918 29.8277 69.0659 30.1484C68.87 30.7542 68.7631 31.7787 68.7453 33.222H69.814ZM98.5378 32.8478C99.464 32.8478 100.203 33.0973 100.755 33.5962C101.325 34.0773 101.61 34.7544 101.61 35.6275C101.61 36.2155 101.441 36.7055 101.103 37.0975C100.764 37.4717 100.363 37.6587 99.9004 37.6587C99.5085 37.6587 99.2414 37.5697 99.0989 37.3915C99.2948 37.0886 99.4284 36.8124 99.4996 36.5629C99.5709 36.2957 99.6065 36.0017 99.6065 35.6809C99.6065 34.5762 99.09 34.0238 98.0569 34.0238C97.2554 34.0238 96.5786 34.5406 96.0264 35.574C95.4921 36.5897 95.2249 38.1755 95.2249 40.3315V41.7747C95.2249 43.3784 95.2427 44.4653 95.2784 45.0355C95.314 45.6057 95.4119 46.1046 95.5722 46.5322C95.1982 46.8529 94.7796 47.0133 94.3165 47.0133C93.9603 47.0133 93.6664 46.9064 93.4349 46.6926C93.2033 46.4609 93.0876 46.1491 93.0876 45.7571V35.9215C93.0876 35.4226 93.0252 35.0662 92.9005 34.8524C92.7937 34.6386 92.6067 34.5317 92.3395 34.5317C92.0011 34.5317 91.7695 34.6742 91.6448 34.9593C91.4311 34.6564 91.3242 34.3713 91.3242 34.104C91.3242 33.7298 91.4667 33.4358 91.7517 33.222C92.0367 32.9904 92.4285 32.8746 92.9273 32.8746C93.6219 32.8746 94.1384 33.124 94.4768 33.6229C94.8331 34.104 95.0023 34.8257 94.9845 35.7878V35.9215C95.2873 34.9058 95.7414 34.1397 96.347 33.6229C96.9526 33.1062 97.6829 32.8478 98.5378 32.8478Z" fill="black"/>
<path d="M71.337 10.4325C71.4617 10.4325 71.5596 10.4949 71.6309 10.6196C71.7021 10.7265 71.7377 10.8691 71.7377 11.0473C71.7377 11.2967 71.6754 11.5551 71.5507 11.8223C71.4439 12.0896 71.3014 12.2589 71.1232 12.3302C68.5762 11.8847 66.1717 11.6531 63.9097 11.6353V18.6913H70.4553C70.5088 18.9051 70.5355 19.1189 70.5355 19.3327C70.5355 19.5822 70.5088 19.8049 70.4553 20.0009H63.9364V25.9076C63.9364 27.2083 64.0522 28.1616 64.2837 28.7674C63.9097 29.0882 63.4911 29.2485 63.028 29.2485C62.6718 29.2485 62.3779 29.1416 62.1463 28.9278C61.9148 28.714 61.799 28.4289 61.799 28.0725L61.7723 13.7467C61.7723 12.5885 61.6565 11.6709 61.425 10.9938C61.6743 10.78 61.9237 10.6374 62.1731 10.5662C62.4402 10.4771 62.8054 10.4325 63.2685 10.4325H71.337ZM98.4768 15.0296C99.403 15.0296 100.142 15.2791 100.694 15.778C101.264 16.2591 101.549 16.9362 101.549 17.8093C101.549 18.3973 101.38 18.8873 101.042 19.2793C100.703 19.6534 100.302 19.8405 99.8393 19.8405C99.4475 19.8405 99.1803 19.7514 99.0378 19.5733C99.2337 19.2703 99.3673 18.9942 99.4386 18.7447C99.5098 18.4774 99.5454 18.1834 99.5454 17.8627C99.5454 16.758 99.0289 16.2056 97.9959 16.2056C97.1944 16.2056 96.5175 16.7223 95.9654 17.7558C95.431 18.7714 95.1639 20.3573 95.1639 22.5133V23.9565C95.1639 25.5602 95.1817 26.6471 95.2173 27.2173C95.2529 27.7874 95.3509 28.2863 95.5112 28.714C95.1371 29.0347 94.7186 29.1951 94.2555 29.1951C93.8993 29.1951 93.6054 29.0882 93.3738 28.8743C93.1423 28.6427 93.0265 28.3309 93.0265 27.9389V18.1033C93.0265 17.6043 92.9642 17.248 92.8395 17.0342C92.7326 16.8203 92.5456 16.7134 92.2784 16.7134C91.94 16.7134 91.7085 16.856 91.5838 17.1411C91.37 16.8382 91.2632 16.5531 91.2632 16.2858C91.2632 15.9116 91.4057 15.6176 91.6907 15.4038C91.9756 15.1722 92.3675 15.0563 92.8662 15.0563C93.5608 15.0563 94.0774 15.3058 94.4158 15.8047C94.772 16.2858 94.9412 17.0074 94.9234 17.9696V18.1033C95.2262 17.0876 95.6804 16.3214 96.286 15.8047C96.8916 15.288 97.6218 15.0296 98.4768 15.0296ZM123.602 25.9076C123.602 27.1371 123.717 28.0903 123.949 28.7674C123.557 29.0882 123.147 29.2485 122.72 29.2485C122.364 29.2485 122.07 29.1416 121.838 28.9278C121.607 28.714 121.491 28.4289 121.491 28.0725V20.8562C121.491 19.3238 121.304 18.1656 120.93 17.3816C120.556 16.5976 119.897 16.2056 118.953 16.2056C118.383 16.2056 117.831 16.4105 117.296 16.8203C116.762 17.2302 116.308 17.8894 115.934 18.7982C115.578 19.6891 115.391 20.8116 115.373 22.1658L115.4 25.9076C115.4 27.1905 115.506 28.1438 115.72 28.7674C115.364 29.0882 114.963 29.2485 114.518 29.2485C114.162 29.2485 113.877 29.1416 113.663 28.9278C113.449 28.714 113.342 28.4289 113.342 28.0725L113.316 20.8562C113.316 19.2703 113.12 18.1033 112.728 17.3549C112.336 16.5887 111.659 16.2056 110.697 16.2056C110.11 16.2056 109.549 16.4283 109.014 16.8738C108.498 17.3014 108.07 18.0053 107.732 18.9853C107.393 19.9474 107.224 21.1769 107.224 22.6736C107.224 24.9187 107.242 26.3798 107.278 27.0569C107.313 27.734 107.42 28.3042 107.598 28.7674C107.224 29.0882 106.814 29.2485 106.369 29.2485C105.995 29.2485 105.692 29.1327 105.461 28.9011C105.247 28.6694 105.14 28.3576 105.14 27.9656L105.113 18.13C105.113 17.6667 105.033 17.3193 104.873 17.0876C104.713 16.8382 104.481 16.7134 104.178 16.7134C104.018 16.7134 103.858 16.7669 103.697 16.8738C103.537 16.9629 103.421 17.0965 103.35 17.2747C103.154 17.0253 103.056 16.7491 103.056 16.4462C103.056 16.0363 103.217 15.7067 103.537 15.4573C103.858 15.19 104.25 15.0563 104.713 15.0563C105.443 15.0563 106.004 15.3147 106.396 15.8314C106.806 16.3303 107.01 17.0609 107.01 18.0231V18.4507C107.367 17.3816 107.919 16.5442 108.667 15.9383C109.415 15.3325 110.297 15.0296 111.312 15.0296C113.485 15.0296 114.776 16.1878 115.186 18.5042C115.506 17.4173 116.05 16.5709 116.816 15.9651C117.581 15.3414 118.49 15.0296 119.541 15.0296C120.93 15.0296 121.954 15.5018 122.613 16.4462C123.272 17.3727 123.602 18.7536 123.602 20.5889V25.9076Z" fill="black"/>
</g>
<defs>
<filter id="filter0_b" x="-5" y="-5" width="141" height="61" filterUnits="userSpaceOnUse" color-interpolation-filters="sRGB">
<feFlood flood-opacity="0" result="BackgroundImageFix"/>
<feGaussianBlur in="BackgroundImage" stdDeviation="2.5"/>
<feComposite in2="SourceAlpha" operator="in" result="effect1_backgroundBlur"/>
<feBlend mode="normal" in="SourceGraphic" in2="effect1_backgroundBlur" result="shape"/>
</filter>
</defs>
</svg>
